<?xml version="1.0" encoding="UTF-8"?>
<svg id="Layer_1" data-name="Layer 1" xmlns="http://www.w3.org/2000/svg" viewBox="0 0 1835.91 442.93">
    <defs>
        <style>
            .cls-1 {
            fill: url(#linear-gradient);
            }

            .cls-1, .cls-2 {
            stroke-width: 0px;
            }
        </style>
        <linearGradient id="linear-gradient" x1="123.79" y1="386.22" x2="291.4" y2="141.11" gradientUnits="userSpaceOnUse">
            <stop offset=".14" stop-color="#782ab0"/>
            <stop offset=".28" stop-color="#7739b6"/>
            <stop offset=".41" stop-color="#7649bc"/>
            <stop offset=".66" stop-color="#7373ce"/>
            <stop offset="1" stop-color="#70b5ea"/>
        </linearGradient>
    </defs>
    <g>
        <path class="cls-2"
              d="M584.85,316.59c0,4.02-3.26,7.28-7.28,7.28h-74.94c-4.02,0-7.28-3.26-7.28-7.28v-57.31h-26.6v66.9c0,12.48,10.12,22.6,22.6,22.6h97.71c12.48,0,22.6-10.12,22.6-22.6V92.5h-26.81v224.08Z"/>
        <path class="cls-2"
              d="M785.05,148.28h-93.76c-14.3,0-25.92,11.6-25.92,25.92v148.65c0,14.32,11.62,25.92,25.92,25.92h93.76c14.32,0,25.92-11.6,25.92-25.92v-148.65c0-14.32-11.6-25.92-25.92-25.92ZM783.59,316.83c0,4.58-3.73,8.32-8.32,8.32h-74.21c-4.58,0-8.3-3.73-8.3-8.32v-136.6c0-4.58,3.72-8.3,8.3-8.3h74.21c4.58,0,8.32,3.72,8.32,8.3v136.6Z"/>
        <path class="cls-2"
              d="M981.94,148.29h-74.93c-9.56,0-17.31,7.75-17.31,17.31v-92.44h-26.51v275.62h26.51v-18.05c0,9.97,8.08,18.05,18.05,18.05h74.18c13.46,0,24.37-10.91,24.37-24.37v-151.75c0-13.46-10.91-24.37-24.37-24.37ZM979.92,316.18c0,4.95-4.01,8.96-8.96,8.96h-67.78c-7.44,0-13.47-6.03-13.47-13.47v-126.26c0-7.44,6.03-13.47,13.47-13.47h67.78c4.95,0,8.96,4.01,8.96,8.96v135.3Z"/>
        <path class="cls-2"
              d="M1199.63,256.29c11.69,0,21.16-9.47,21.16-21.16v-121.47c0-11.69-9.47-21.16-21.16-21.16h-137.23v256.28h26.77v-92.49h60.39l44.27,92.49h29.65l-44.81-92.49h20.95ZM1089.17,115.86h99.54c3.42,0,6.2,2.78,6.2,6.2v103.5c0,3.42-2.78,6.2-6.2,6.2h-99.54v-115.9Z"/>
        <path class="cls-2"
              d="M1388.23,314.61c0,4.99-4.05,9.04-9.04,9.04h-71.54c-4.99,0-9.04-4.05-9.04-9.04v-165.52h-27.54v173.51c0,14.45,11.72,26.17,26.17,26.17h72.73c8.37,0,15.46-5.43,17.95-12.95v12.95h26.52v-199.68h-26.21v165.52Z"/>
        <path class="cls-2"
              d="M1589.4,149.1h-72.73c-8.37,0-15.46,5.43-17.95,12.95v-12.95h-26.52v199.68h26.21v-165.52c0-4.99,4.05-9.04,9.04-9.04h71.54c4.99,0,9.04,4.05,9.04,9.04v165.52h27.54v-173.51c0-14.45-11.72-26.17-26.17-26.17Z"/>
        <path class="cls-2"
              d="M1720.15,147.9c-13.76,0-24.92,11.16-24.92,24.92v-23.72h-26.73v199.68h26.73v-154.55c0-11.34,9.19-20.53,20.53-20.53h36.43v-25.79h-32.05Z"/>
    </g>
    <path class="cls-1"
          d="M287.16,73.2s-48.46-6.61-94.71,24.63c-46.26,31.24-64.68,82.14-62.22,119.86s18.28,88.05,78.36,107.67c60.08,19.62,114.35-16.35,132.1-59.76s-.62-98.12-50.04-113.58c-49.42-15.46-90.48,21.54-95.3,52.47s8.2,65.49,50.42,62.27c23.34-1.78,36.05-25.15,35.22-40.31s-14.3-22.03-27.54-17.95c-13.24,4.08-11.8,17.09-10.04,19.28,2.77,3.45,6.76,4.04,11.07,1.66,1.31-.72,2.92.19,3.05,1.68.27,3.21-.56,8.06-6.99,11.05-10.25,4.77-30.68-1.84-29.63-26.43s27.22-39.86,48.39-36.37,41.45,19.61,43.93,49.59c2.65,31.92-26.82,74.21-73.64,72.87-46.82-1.34-80.89-36.76-81.57-83.39s29.39-95.51,92.33-106.08c62.94-10.57,118.36,31.01,133.11,83.51s-6.62,116.99-63.89,156.96c-57.27,39.97-142.5,35.18-199.1-26.76s-43.91-165.69,11.24-218.76,125.52-46.89,155.45-34.09Z"/>
</svg>